<svg width="65" height="22" viewBox="0 0 65 22" fill="none" xmlns="http://www.w3.org/2000/svg">
<rect width="65" height="22" fill="#F5F5F5"/>
<rect x="0.5" y="0.5" width="64" height="21" fill="black" stroke="#0D0C0C"/>
<path d="M8.7168 6.88574C9.32292 6.88574 9.84245 6.99284 10.2754 7.20703C10.7083 7.42122 11.0365 7.72428 11.2598 8.11621C11.4876 8.50814 11.6016 8.96159 11.6016 9.47656C11.6016 9.99154 11.4876 10.4427 11.2598 10.8301C11.0365 11.2129 10.7083 11.5114 10.2754 11.7256C9.84245 11.9352 9.32292 12.04 8.7168 12.04H7.11035V14.0703H8.75098C8.90592 14.0703 9.0153 14.1068 9.0791 14.1797C9.14746 14.248 9.18164 14.3665 9.18164 14.5352C9.18164 14.7038 9.14746 14.8245 9.0791 14.8975C9.0153 14.9658 8.90592 15 8.75098 15H4.97754C4.82259 15 4.71094 14.9658 4.64258 14.8975C4.57878 14.8245 4.54688 14.7038 4.54688 14.5352C4.54688 14.3665 4.57878 14.248 4.64258 14.1797C4.71094 14.1068 4.82259 14.0703 4.97754 14.0703H6.08496V7.81543H4.97754C4.82259 7.81543 4.71094 7.78125 4.64258 7.71289C4.57878 7.63997 4.54688 7.51921 4.54688 7.35059C4.54688 7.18197 4.57878 7.06348 4.64258 6.99512C4.71094 6.9222 4.82259 6.88574 4.97754 6.88574H8.7168ZM7.11035 11.1104H8.57324C9.20671 11.1104 9.68978 10.9668 10.0225 10.6797C10.3551 10.3926 10.5215 9.99154 10.5215 9.47656C10.5215 8.95247 10.3529 8.5446 10.0156 8.25293C9.68294 7.96126 9.20215 7.81543 8.57324 7.81543H7.11035V11.1104ZM18.6836 8.5332C19.0391 8.5332 19.3717 8.62435 19.6816 8.80664C19.8639 8.91602 19.9551 9.05729 19.9551 9.23047C19.9551 9.3125 19.9346 9.4082 19.8936 9.51758C19.7979 9.77734 19.6657 9.90723 19.4971 9.90723C19.4287 9.90723 19.3649 9.889 19.3057 9.85254C19.0824 9.72949 18.8431 9.66797 18.5879 9.66797C18.1777 9.66797 17.7653 9.81152 17.3506 10.0986C16.9359 10.3812 16.5941 10.7594 16.3252 11.2334C16.0609 11.7074 15.9287 12.2109 15.9287 12.7441V14.0703H18.2324C18.3874 14.0703 18.4967 14.1068 18.5605 14.1797C18.6289 14.248 18.6631 14.3665 18.6631 14.5352C18.6631 14.7038 18.6289 14.8245 18.5605 14.8975C18.4967 14.9658 18.3874 15 18.2324 15H13.8301C13.6751 15 13.5635 14.9658 13.4951 14.8975C13.4313 14.8245 13.3994 14.7038 13.3994 14.5352C13.3994 14.3665 13.4313 14.248 13.4951 14.1797C13.5635 14.1068 13.6751 14.0703 13.8301 14.0703H14.9033V9.61328H14.0352C13.8802 9.61328 13.7686 9.5791 13.7002 9.51074C13.6364 9.43783 13.6045 9.31706 13.6045 9.14844C13.6045 8.97982 13.6364 8.86133 13.7002 8.79297C13.7686 8.72005 13.8802 8.68359 14.0352 8.68359H15.4297C15.5846 8.68359 15.694 8.72005 15.7578 8.79297C15.8262 8.86133 15.8604 8.97982 15.8604 9.14844V10.5293C16.0791 10.1283 16.3434 9.77734 16.6533 9.47656C16.9632 9.17578 17.2936 8.94336 17.6445 8.7793C17.9954 8.61523 18.3418 8.5332 18.6836 8.5332ZM24.9863 8.5332C25.6107 8.5332 26.1735 8.67448 26.6748 8.95703C27.1761 9.23958 27.568 9.63379 27.8506 10.1396C28.1377 10.641 28.2812 11.2083 28.2812 11.8418C28.2812 12.4753 28.1377 13.0449 27.8506 13.5508C27.568 14.0521 27.1761 14.444 26.6748 14.7266C26.1735 15.0091 25.6107 15.1504 24.9863 15.1504C24.362 15.1504 23.7992 15.0091 23.2979 14.7266C22.7965 14.444 22.4023 14.0521 22.1152 13.5508C21.8327 13.0449 21.6914 12.4753 21.6914 11.8418C21.6914 11.2083 21.8327 10.641 22.1152 10.1396C22.4023 9.63379 22.7965 9.23958 23.2979 8.95703C23.7992 8.67448 24.362 8.5332 24.9863 8.5332ZM24.9863 9.54492C24.5443 9.54492 24.1546 9.6429 23.8174 9.83887C23.4847 10.0303 23.2272 10.3014 23.0449 10.6523C22.8626 10.9987 22.7715 11.3952 22.7715 11.8418C22.7715 12.2884 22.8626 12.6872 23.0449 13.0381C23.2272 13.3844 23.4847 13.6556 23.8174 13.8516C24.1546 14.043 24.5443 14.1387 24.9863 14.1387C25.4284 14.1387 25.8158 14.043 26.1484 13.8516C26.4857 13.6556 26.7454 13.3844 26.9277 13.0381C27.11 12.6872 27.2012 12.2884 27.2012 11.8418C27.2012 11.3952 27.11 10.9987 26.9277 10.6523C26.7454 10.3014 26.4857 10.0303 26.1484 9.83887C25.8158 9.6429 25.4284 9.54492 24.9863 9.54492ZM37.3252 14.0703C37.4801 14.0703 37.5895 14.1068 37.6533 14.1797C37.7217 14.248 37.7559 14.3665 37.7559 14.5352C37.7559 14.7038 37.7217 14.8245 37.6533 14.8975C37.5895 14.9658 37.4801 15 37.3252 15H36.3066C36.1517 15 36.04 14.9658 35.9717 14.8975C35.9079 14.8245 35.876 14.7038 35.876 14.5352V10.4883C35.876 10.1738 35.8236 9.93913 35.7188 9.78418C35.6185 9.62467 35.4544 9.54492 35.2266 9.54492C35.0124 9.54492 34.8141 9.64518 34.6318 9.8457C34.4495 10.0417 34.3037 10.3174 34.1943 10.6729C34.0895 11.0238 34.0371 11.4248 34.0371 11.876V14.0703H34.4268C34.5817 14.0703 34.6911 14.1068 34.7549 14.1797C34.8232 14.248 34.8574 14.3665 34.8574 14.5352C34.8574 14.7038 34.8232 14.8245 34.7549 14.8975C34.6911 14.9658 34.5817 15 34.4268 15H33.4424C33.2874 15 33.1758 14.9658 33.1074 14.8975C33.0436 14.8245 33.0117 14.7038 33.0117 14.5352V10.4883C33.0117 10.1738 32.9593 9.93913 32.8545 9.78418C32.7542 9.62467 32.5902 9.54492 32.3623 9.54492C32.1481 9.54492 31.9499 9.64518 31.7676 9.8457C31.5853 10.0417 31.4395 10.3174 31.3301 10.6729C31.2253 11.0238 31.1729 11.4248 31.1729 11.876V14.0703H31.5283C31.6833 14.0703 31.7926 14.1068 31.8564 14.1797C31.9248 14.248 31.959 14.3665 31.959 14.5352C31.959 14.7038 31.9248 14.8245 31.8564 14.8975C31.7926 14.9658 31.6833 15 31.5283 15H29.5869C29.432 15 29.3203 14.9658 29.252 14.8975C29.1882 14.8245 29.1562 14.7038 29.1562 14.5352C29.1562 14.3665 29.1882 14.248 29.252 14.1797C29.3203 14.1068 29.432 14.0703 29.5869 14.0703H30.1475V9.61328H29.5869C29.432 9.61328 29.3203 9.5791 29.252 9.51074C29.1882 9.43783 29.1562 9.31706 29.1562 9.14844C29.1562 8.97982 29.1882 8.86133 29.252 8.79297C29.3203 8.72005 29.432 8.68359 29.5869 8.68359H30.6055C30.7604 8.68359 30.8698 8.72005 30.9336 8.79297C31.002 8.86133 31.0361 8.97982 31.0361 9.14844V9.8252C31.2321 9.39681 31.4668 9.07552 31.7402 8.86133C32.0137 8.64258 32.3099 8.5332 32.6289 8.5332C32.9388 8.5332 33.21 8.63802 33.4424 8.84766C33.6748 9.05729 33.832 9.36491 33.9141 9.77051C34.3197 8.94564 34.8438 8.5332 35.4863 8.5332C35.7552 8.5332 35.9945 8.60156 36.2041 8.73828C36.4183 8.87044 36.5869 9.07552 36.71 9.35352C36.8376 9.62695 36.9014 9.96419 36.9014 10.3652V14.0703H37.3252ZM41.7754 8.5332C42.3997 8.5332 42.9626 8.67448 43.4639 8.95703C43.9652 9.23958 44.3571 9.63379 44.6396 10.1396C44.9268 10.641 45.0703 11.2083 45.0703 11.8418C45.0703 12.4753 44.9268 13.0449 44.6396 13.5508C44.3571 14.0521 43.9652 14.444 43.4639 14.7266C42.9626 15.0091 42.3997 15.1504 41.7754 15.1504C41.151 15.1504 40.5882 15.0091 40.0869 14.7266C39.5856 14.444 39.1914 14.0521 38.9043 13.5508C38.6217 13.0449 38.4805 12.4753 38.4805 11.8418C38.4805 11.2083 38.6217 10.641 38.9043 10.1396C39.1914 9.63379 39.5856 9.23958 40.0869 8.95703C40.5882 8.67448 41.151 8.5332 41.7754 8.5332ZM41.7754 9.54492C41.3333 9.54492 40.9437 9.6429 40.6064 9.83887C40.2738 10.0303 40.0163 10.3014 39.834 10.6523C39.6517 10.9987 39.5605 11.3952 39.5605 11.8418C39.5605 12.2884 39.6517 12.6872 39.834 13.0381C40.0163 13.3844 40.2738 13.6556 40.6064 13.8516C40.9437 14.043 41.3333 14.1387 41.7754 14.1387C42.2174 14.1387 42.6048 14.043 42.9375 13.8516C43.2747 13.6556 43.5345 13.3844 43.7168 13.0381C43.8991 12.6872 43.9902 12.2884 43.9902 11.8418C43.9902 11.3952 43.8991 10.9987 43.7168 10.6523C43.5345 10.3014 43.2747 10.0303 42.9375 9.83887C42.6048 9.6429 42.2174 9.54492 41.7754 9.54492ZM49.1035 6.73535C49.2904 6.73535 49.4225 6.76953 49.5 6.83789C49.5775 6.90625 49.6162 7.02018 49.6162 7.17969V9.23047H52.4258C52.5807 9.23047 52.6901 9.26693 52.7539 9.33984C52.8223 9.4082 52.8564 9.52669 52.8564 9.69531C52.8564 9.86393 52.8223 9.9847 52.7539 10.0576C52.6901 10.126 52.5807 10.1602 52.4258 10.1602H49.6162V12.6484C49.6162 13.168 49.7051 13.5485 49.8828 13.79C50.0651 14.0316 50.3796 14.1523 50.8262 14.1523C51.1315 14.1523 51.4528 14.0908 51.79 13.9678C52.1273 13.8447 52.4531 13.6807 52.7676 13.4756C52.8314 13.43 52.902 13.4072 52.9795 13.4072C53.1344 13.4072 53.2666 13.512 53.376 13.7217C53.4352 13.8402 53.4648 13.9427 53.4648 14.0293C53.4648 14.1751 53.3896 14.2936 53.2393 14.3848C52.8838 14.6081 52.4873 14.7926 52.0498 14.9385C51.6123 15.0798 51.2044 15.1504 50.8262 15.1504C50.0514 15.1504 49.484 14.9499 49.124 14.5488C48.7686 14.1432 48.5908 13.5394 48.5908 12.7373V10.1602H47.2031C47.0482 10.1602 46.9365 10.126 46.8682 10.0576C46.8044 9.9847 46.7725 9.86393 46.7725 9.69531C46.7725 9.52669 46.8044 9.4082 46.8682 9.33984C46.9365 9.26693 47.0482 9.23047 47.2031 9.23047H48.5908V7.17969C48.5908 7.02018 48.6296 6.90625 48.707 6.83789C48.7845 6.76953 48.9167 6.73535 49.1035 6.73535Z" fill="#FFFCFC"/>
<path d="M57.8523 15.1193C57.2898 15.1193 56.7884 15.0227 56.348 14.8295C55.9105 14.6364 55.5625 14.3679 55.304 14.0241C55.0483 13.6776 54.9091 13.2756 54.8864 12.8182H55.9602C55.983 13.0994 56.0795 13.3423 56.25 13.5469C56.4205 13.7486 56.6435 13.9048 56.919 14.0156C57.1946 14.1264 57.5 14.1818 57.8352 14.1818C58.2102 14.1818 58.5426 14.1165 58.8324 13.9858C59.1222 13.8551 59.3494 13.6733 59.5142 13.4403C59.679 13.2074 59.7614 12.9375 59.7614 12.6307C59.7614 12.3097 59.6818 12.027 59.5227 11.7827C59.3636 11.5355 59.1307 11.3423 58.8239 11.2031C58.517 11.0639 58.142 10.9943 57.6989 10.9943H57V10.0568H57.6989C58.0455 10.0568 58.3494 9.99432 58.6108 9.86932C58.875 9.74432 59.081 9.56818 59.2287 9.34091C59.3793 9.11364 59.4545 8.84659 59.4545 8.53977C59.4545 8.24432 59.3892 7.98722 59.2585 7.76847C59.1278 7.54972 58.9432 7.37926 58.7045 7.2571C58.4688 7.13494 58.1903 7.07386 57.8693 7.07386C57.5682 7.07386 57.2841 7.12926 57.017 7.24006C56.7528 7.34801 56.5369 7.50568 56.3693 7.71307C56.2017 7.91761 56.1108 8.16477 56.0966 8.45455H55.0739C55.0909 7.99716 55.2287 7.59659 55.4872 7.25284C55.7457 6.90625 56.0838 6.63636 56.5014 6.44318C56.9219 6.25 57.3835 6.15341 57.8864 6.15341C58.4261 6.15341 58.8892 6.26278 59.2756 6.48153C59.6619 6.69744 59.9588 6.98295 60.1662 7.33807C60.3736 7.69318 60.4773 8.0767 60.4773 8.48864C60.4773 8.98011 60.348 9.39915 60.0895 9.74574C59.8338 10.0923 59.4858 10.3324 59.0455 10.4659V10.5341C59.5966 10.625 60.027 10.8594 60.3366 11.2372C60.6463 11.6122 60.8011 12.0767 60.8011 12.6307C60.8011 13.1051 60.6719 13.5312 60.4134 13.9091C60.1577 14.2841 59.8082 14.5795 59.3651 14.7955C58.9219 15.0114 58.4176 15.1193 57.8523 15.1193Z" fill="#08E179"/>
</svg>
